PathFileType	3	(X/Y/Z)	D:\minhoCalibration\240510\subject1_KPNP\preferred\preferred09.trc
DataRate	CameraRate	NumFrames	NumMarkers	Units	OrigDataRate	OrigDataStartFrame	OrigNumFrames
200.0	200.0	30	10	mm	200.0	550	215	
Frame#	Time	Left_Ankle_Outer1			Left_Ankle_Inner1			Left_Knee_Outer1			Left_Knee_Inner1			Left_Wrist1			Right_Wrist1			Right_Knee_Inner1			Right_Knee_Outer1			Right_Ankle_Inner1			Right_Ankle_Outer1			
		X1	Y1	Z1	X2	Y2	Z2	X3	Y3	Z3	X4	Y4	Z4	X5	Y5	Z5	X6	Y6	Z6	X7	Y7	Z7	X8	Y8	Z8	X9	Y9	Z9	X10	Y10	Z10	
550	2.74	-458.6301	106.09099	-571.59314	-512.4137	110.57702	-553.18085	-404.9021	531.17975	-397.20013	-512.57422	503.03836	-416.34329	-384.66177	983.8241	-513.14929	-703.73279	1002.4518	-668.44208	-692.37836	515.2406	-597.45349	-771.87701	553.4295	-672.14331	-626.88715	177.26915	-889.24683	-724.79449	176.17038	-934.56067
551	2.745	-458.51749	105.49761	-572.06262	-512.32092	109.5351	-553.44843	-406.2934	531.39813	-399.04062	-514.17249	502.6936	-418.59262	-388.88861	983.35272	-513.12299	-704.34192	1002.8603	-673.43213	-689.83765	514.42145	-607.51489	-769.42487	552.73132	-682.19397	-624.10089	173.29445	-894.30481	-721.46533	172.19511	-941.13977
552	2.75	-458.46121	104.74419	-572.53979	-512.22247	108.87813	-554.11646	-408.3576	531.36444	-401.12347	-515.94977	502.48575	-420.69907	-391.27759	983.14227	-514.58179	-705.3894	1002.5193	-678.15808	-687.30023	513.78711	-617.30304	-766.87134	552.0993	-692.30011	-621.5163	169.49896	-898.85632	-718.05219	168.429	-947.33942
553	2.755	-458.19	104.27348	-572.99725	-512.31653	108.51093	-555.20453	-409.78937	531.61871	-402.89691	-517.34753	502.13159	-423.31494	-393.85663	982.84369	-515.87793	-706.29596	1002.3638	-682.86853	-684.6452	513.24133	-626.90381	-764.34705	551.57385	-702.34698	-619.03137	165.70914	-902.82849	-714.79614	164.70746	-952.7041
554	2.76	-457.99002	103.67105	-573.39502	-512.55688	107.59478	-554.46338	-411.6015	531.75159	-404.69547	-518.80786	501.91318	-425.95789	-396.75192	982.44336	-517.34192	-707.19739	1002.1451	-687.49335	-681.99384	512.80859	-636.12805	-761.79492	551.05554	-712.00269	-616.71411	161.97568	-906.21851	-711.91443	160.88097	-957.24945
555	2.765	-457.82574	103.11723	-573.81311	-512.27063	107.46543	-555.84094	-413.58749	531.83606	-406.62381	-520.38562	501.8223	-428.58722	-399.33636	982.0127	-519.151	-708.28046	1001.7968	-691.96454	-679.36218	512.26147	-645.56763	-759.00366	550.55231	-721.63458	-614.48267	158.20726	-909.23096	-709.33563	157.06256	-961.21875
556	2.77	-457.88486	102.53939	-574.11755	-512.10583	106.95023	-556.50385	-415.32986	532.04645	-408.26849	-521.91321	501.5965	-431.30191	-401.47546	981.50842	-521.22699	-709.00781	1001.6747	-696.71722	-676.91119	511.76471	-654.46375	-756.58521	550.12872	-731.01843	-612.54004	154.47324	-911.70392	-706.85022	153.20354	-964.83118
557	2.775	-457.85965	102.14158	-574.41608	-512.18115	106.54687	-556.92303	-416.6189	532.4624	-409.76965	-523.51086	501.52963	-433.97739	-403.68207	981.00781	-523.41656	-709.85364	1001.4087	-701.15631	-674.82159	511.40274	-662.50854	-754.08929	549.81482	-740.21454	-610.68176	150.84888	-913.75281	-704.42657	149.38864	-967.82227
558	2.78	-457.89685	101.8947	-574.73151	-512.08655	105.87157	-556.90033	-418.26404	532.73779	-411.38116	-524.75159	501.65475	-436.47946	-405.93149	980.47913	-525.67285	-710.73798	1001.129	-705.50085	-672.76215	510.88046	-670.67902	-751.7049	549.59753	-749.01178	-608.86493	147.41086	-915.32086	-702.20056	145.61807	-970.14453
559	2.785	-458.17331	101.53474	-575.00238	-512.21185	105.56607	-557.18134	-419.7543	533.10126	-413.0416	-526.28296	501.56927	-439.1666	-408.25818	979.93286	-527.98291	-711.61926	1000.8029	-709.79572	-670.86505	510.35391	-678.41229	-749.33679	549.34143	-757.80359	-607.20166	144.20526	-916.74707	-700.19946	142.11671	-972.22583
560	2.79	-458.3927	101.21932	-575.29785	-512.54779	105.21903	-557.41522	-421.19312	533.49249	-414.75623	-527.58441	501.67001	-441.4783	-410.35867	979.43518	-530.50269	-712.45001	1000.4565	-713.94922	-669.54626	510.39679	-685.97357	-747.05463	549.16357	-766.30585	-605.67865	141.23387	-917.95892	-698.3042	139.00113	-974.04071
561	2.795	-458.80035	100.87469	-575.51764	-513.0603	104.96886	-557.95105	-422.51505	533.8783	-416.50113	-528.77661	501.76657	-443.78287	-412.3566	978.97742	-533.04382	-713.37561	1000.1326	-718.11011	-668.09998	510.18982	-692.89838	-744.87091	549.02094	-774.46429	-604.34106	138.57031	-919.12634	-696.65112	136.12466	-975.74719
562	2.8	-459.0755	100.61325	-575.86218	-513.3537	104.67561	-558.04468	-423.7485	534.31024	-418.38263	-529.90875	501.83575	-446.01178	-414.3725	978.62592	-535.64246	-714.1286	999.7959	-722.2348	-666.74536	509.94592	-699.22302	-742.7594	549.05579	-782.29907	-603.1377	136.14899	-920.36963	-695.20673	133.5536	-977.29987
563	2.805	-459.50571	100.31001	-576.11133	-513.56879	104.2356	-557.95862	-424.87256	534.71222	-420.26776	-530.91309	501.98709	-448.17422	-416.06964	978.28821	-538.30121	-714.92542	999.4679	-726.34265	-665.67566	510.10614	-705.26636	-740.77844	549.05762	-789.51038	-602.14771	133.99582	-921.5448	-693.84485	131.35809	-978.80664
564	2.81	-459.83746	100.09192	-576.42969	-513.9024	103.97285	-558.16589	-425.96118	535.1333	-422.22662	-531.97528	502.05051	-450.25781	-418.13849	978.19031	-540.64215	-715.90503	999.10297	-730.57904	-665.06744	510.68265	-710.95972	-738.93866	549.08148	-796.44836	-601.29401	132.11662	-922.6225	-692.7229	129.27405	-980.16968
565	2.815	-460.1965	99.828484	-576.77661	-514.28625	103.70873	-558.30518	-426.91675	535.53021	-424.29379	-532.83026	502.17462	-452.2117	-419.96011	978.07874	-543.12329	-716.2254	998.98584	-734.65601	-664.0152	510.87839	-715.85803	-737.05615	549.10583	-802.66888	-600.47913	130.20105	-923.78094	-691.65839	127.07221	-981.07983
566	2.82	-460.42618	99.612999	-577.17871	-514.6922	103.48499	-558.77386	-427.84555	535.91376	-426.39667	-533.6347	502.24005	-454.12271	-421.77426	977.99878	-545.48297	-716.85303	998.53735	-738.81482	-663.23004	511.37524	-720.84302	-735.2359	549.10266	-808.67657	-599.78516	128.66406	-924.7868	-690.86438	125.27497	-982.14813
567	2.825	-460.64182	99.321716	-577.58093	-514.91205	103.16657	-558.91858	-428.80429	536.24963	-428.48422	-534.53394	502.27695	-455.98645	-423.60995	977.96454	-547.68115	-717.3186	998.32562	-743.24774	-662.71576	512.12976	-725.60498	-733.50964	549.26514	-814.4328	-599.12122	127.07275	-925.72784	-690.21161	123.7403	-983.19025
568	2.83	-461.67554	98.570007	-577.33136	-515.08698	102.82834	-559.13965	-429.68839	536.59796	-430.62646	-535.2569	502.37411	-457.81293	-425.50729	977.91577	-549.77057	-717.60809	998.18127	-747.54755	-661.7135	512.41321	-729.83423	-731.95319	549.5672	-820.26544	-598.56146	125.73731	-926.57532	-689.5011	122.08141	-983.90833
569	2.835	-461.13358	98.762657	-578.32776	-515.19391	102.56094	-559.4494	-430.5853	536.9021	-432.75601	-535.96558	502.47568	-459.6347	-427.3548	977.95306	-551.85345	-717.76147	998.04028	-752.08179	-660.92419	512.83844	-734.0788	-729.9328	549.49957	-824.74884	-598.00458	124.46858	-927.42572	-688.90955	120.81568	-984.58508
570	2.84	-461.38727	98.558029	-578.48468	-515.39618	102.33797	-559.80334	-431.51639	537.19202	-434.8916	-536.82263	502.40707	-461.64072	-429.33728	977.96387	-553.77325	-717.8056	997.95044	-756.47302	-660.46094	513.45898	-738.07227	-728.29187	549.4491	-829.02411	-597.50684	123.34586	-928.20874	-688.3819	119.62194	-985.26666
571	2.845	-461.37903	98.404457	-578.97095	-515.55127	102.08061	-560.25879	-432.45325	537.47345	-437.09506	-537.70001	502.47018	-463.7041	-431.24777	977.97864	-555.64093	-717.80328	998.15863	-760.97131	-659.67584	513.36047	-742.15759	-726.29669	549.27795	-832.72668	-596.85327	122.35294	-929.03296	-687.98474	118.40988	-985.86523
572	2.85	-461.47955	98.20417	-579.38562	-515.60803	101.8557	-560.55994	-433.83243	537.61322	-439.40738	-538.38196	502.58743	-465.74591	-433.13223	978.00891	-557.48816	-717.62189	998.25763	-765.36169	-658.71655	513.51465	-745.42151	-724.883	549.17242	-836.60187	-596.37488	121.29205	-929.953	-687.5094	117.43479	-986.4325
573	2.855	-461.5921	98.022064	-579.68872	-515.79303	101.59016	-560.97498	-434.49902	537.97491	-441.34512	-539.37598	502.60187	-468.03387	-435.08246	978.00964	-559.2135	-717.47162	998.31921	-769.67963	-657.90503	513.52325	-748.70239	-723.70801	549.33295	-840.25403	-595.9668	120.48851	-930.63733	-687.18213	116.43947	-986.94849
574	2.86	-461.63397	97.885406	-579.98535	-515.82654	101.4826	-561.19421	-435.53387	538.22968	-443.37619	-540.23694	502.66516	-470.30359	-436.99066	977.99805	-560.927	-717.2771	998.49579	-773.90704	-657.12958	513.89844	-752.14771	-722.37109	548.91736	-843.33765	-595.53668	119.63194	-931.28241	-686.78894	115.49725	-987.48639
575	2.865	-461.74005	97.745735	-580.17102	-515.87946	101.34227	-561.40631	-436.54575	538.50903	-445.39124	-540.88965	502.90234	-472.54849	-438.81616	977.99603	-562.66724	-717.04224	998.43866	-778.37622	-656.25793	513.7691	-754.87042	-721.34576	548.76593	-846.47186	-595.13281	119.00103	-931.80981	-686.4408	114.65295	-987.91595
576	2.87	-461.78802	97.658051	-580.41254	-515.93939	101.18615	-561.67603	-437.55093	538.8399	-447.33234	-542.02588	502.91263	-474.90512	-440.55508	978.04248	-564.40448	-716.9007	998.75677	-782.07294	-655.14734	513.79425	-757.89136	-720.42474	548.52649	-849.27161	-594.77887	118.26575	-932.31586	-686.05701	113.94867	-988.33301
577	2.875	-461.94653	97.555344	-580.61639	-515.98993	101.14603	-561.84125	-438.62784	539.20117	-449.1474	-542.87708	503.11047	-477.1785	-442.267	978.11365	-566.1571	-716.76147	998.91357	-785.92029	-654.65204	513.72253	-760.53687	-719.72949	548.38391	-851.91656	-594.46838	117.61659	-932.66766	-685.69244	113.28272	-988.71973
578	2.88	-461.98938	97.608704	-580.81757	-516.06964	101.14354	-562.08118	-439.60507	539.55383	-450.95151	-543.98096	503.15045	-479.5256	-443.76941	978.27887	-567.95557	-716.5434	999.09894	-789.5578	-654.30029	513.9447	-762.88007	-719.2193	548.21448	-854.32086	-594.23419	117.12341	-932.94659	-685.43835	112.5682	-989.08838
579	2.885	-462.0387	97.643883	-581.02307	-516.12103	101.13014	-562.19824	-440.5683	539.95129	-452.70026	-544.7074	503.29733	-481.8985	-445.16574	978.48407	-569.7793	-716.54633	999.35883	-793.15698	-654.32538	514.4231	-764.77631	-718.81421	548.11066	-856.62018	-594.0152	116.73776	-933.22821	-685.17822	112.11794	-989.39087
